<svg width="1622" height="240" viewBox="0 0 1622 240" fill="none" xmlns="http://www.w3.org/2000/svg">
<path d="M1538.67 158.603L1511.12 71.5515L1481.75 158.603H1538.67ZM1499.12 146.221L1510.75 111.539L1521.47 146.221H1499.12Z" fill="#CB333B"/>
<path d="M1495.36 2.08203H1482.12L1396.84 236.595L1396.52 237.453H1409.71L1494.99 2.99328L1495.36 2.08203Z" fill="#CB333B"/>
<path d="M1470.01 193.016L1455.64 236.595L1455.32 237.453H1468.45L1479.01 205.398H1540.18L1550.09 237.453H1562.8L1549.02 193.016H1470.01Z" fill="#CB333B"/>
<path d="M1537.17 4.01174L1536.48 2.08203H1523.29L1608.2 235.523L1608.89 237.453H1621.33L1537.17 4.01174Z" fill="#CB333B"/>
<path d="M1386.28 2.08203H1373.85V237.453H1386.28V2.08203Z" fill="#CB333B"/>
<path d="M1251.74 97.4954V237.453H1264.17V139.895L1325.5 236.113L1326.41 237.453H1340.93L1252.97 99.4251L1251.74 97.4954Z" fill="#CB333B"/>
<path d="M1330.21 3.04689V2.35005H1317.78V98.1922L1256.62 2.40365L1256.4 2.08203H1241.66L1330.32 141.021L1330.21 3.04689Z" fill="#CB333B"/>
<path d="M1208.1 2.08203H1195.67V237.453H1208.1V2.08203Z" fill="#CB333B"/>
<path d="M746.315 2.08203H565.351V14.5179H746.315V2.08203Z" fill="#CB333B"/>
<path d="M565.297 64.4223H621.42V237.453H633.802V52.04H565.297V64.4223Z" fill="#CB333B"/>
<path d="M677.756 237.453H690.192V64.4223H746.261V52.04H677.756V237.453Z" fill="#CB333B"/>
<path d="M286.026 2.3501H191.47V238.203H203.906V14.6252H286.026C320.868 14.6252 356.138 37.1921 356.138 80.3425C356.138 123.493 320.868 146.06 286.026 146.06H246.199V238.096H258.635V158.335H286.133C340.218 158.335 368.521 119.097 368.521 80.3425C368.521 41.5875 340.272 2.3501 286.026 2.3501Z" fill="#CB333B"/>
<path d="M312.077 78.4128C312.063 70.6407 308.969 63.1911 303.473 57.6954C297.978 52.1998 290.528 49.1061 282.756 49.0919H244.805V107.519H282.756C290.491 107.505 297.909 104.441 303.398 98.9917C308.888 93.5423 312.006 86.1475 312.077 78.4128ZM257.241 95.2977V61.4742H282.756C287.077 61.7176 291.14 63.6054 294.113 66.7502C297.086 69.8951 298.742 74.0585 298.742 78.386C298.742 82.7135 297.086 86.8768 294.113 90.0217C291.14 93.1666 287.077 95.0544 282.756 95.2977H257.241Z" fill="#CB333B"/>
<path d="M73.3827 147.561L100.184 151.313C107.619 151.547 114.316 156.001 113.585 164.07C112.786 172.888 105.062 177.739 88.1771 177.739C78.8502 177.739 55.7473 176.453 43.5258 164.177L34.8421 172.7C50.3334 188.245 77.3493 189.907 88.4451 189.907C102.167 189.907 112.298 187.12 118.57 181.598C123.448 177.304 125.758 171.208 126.074 164.231C126.368 157.743 124.598 150.923 119.803 146.542C114.63 141.816 108.332 140.556 101.846 139.359L75.0444 135.607C60.0319 134.311 45.8737 128.071 34.7885 117.864C30.0332 112.411 26.4053 106.069 24.1145 99.2058C21.8236 92.3424 20.9151 85.0931 21.4414 77.8766C21.4414 39.9257 51.0838 14.4643 95.5207 14.4643C126.878 14.4643 148.427 21.9687 165.205 38.9072L173.781 30.2772C154.162 11.0337 129.827 2.29639 95.1455 2.29639C69.6841 2.29639 48.2429 9.47919 32.698 23.0408C24.9298 29.8319 18.7549 38.2527 14.6134 47.7031C10.4718 57.1536 8.46554 67.4013 8.73745 77.7158C8.19787 86.5378 9.41749 95.379 12.3254 103.725C15.2333 112.072 19.7715 119.757 25.676 126.334C38.8078 138.468 55.5773 145.93 73.3827 147.561Z" fill="#CB333B"/>
<path d="M113.799 90.3125L86.9977 86.6675C81.166 86.1978 73.3249 82.7206 73.1681 75.9469C73.1681 68.8713 79.5469 61.6885 93.6981 61.6885C107.149 61.6885 120.945 62.873 131.059 72.8915L139.368 64.2615C126.813 51.7067 110.299 49.5206 93.4301 49.5206C70.9704 49.5206 60.7322 63.243 60.7322 76.0005C60.8801 89.2604 73.4877 97.8404 85.7648 98.7282L112.566 102.48C127.222 103.632 141.132 109.414 152.286 118.99C162.042 128.478 166.759 142.79 166.759 162.677C166.759 194.088 142.37 225.767 87.9625 225.767H87.1049C51.1909 225.767 27.82 217.673 8.8981 198.966L0 207.221C21.0124 228.662 47.2779 238.096 87.7481 238.096C142.209 238.096 178.873 207.971 178.873 163.052C178.873 139.466 172.87 122.26 160.541 110.36C147.505 98.8516 131.123 91.8253 113.799 90.3125Z" fill="#CB333B"/>
<path d="M770.49 2.08203H758.054V237.453H770.49V2.08203Z" fill="#CB333B"/>
<path d="M892.705 2.35005H880.322V98.1922L819.804 3.42211L818.947 2.08203H804.206L892.705 141.021V2.35005Z" fill="#CB333B"/>
<path d="M814.283 97.4954V237.453H826.666V139.895L888.684 237.185L888.899 237.453H903.372L815.516 99.4251L814.283 97.4954Z" fill="#CB333B"/>
<path d="M948.827 2.08203H936.391V237.453H948.827V2.08203Z" fill="#CB333B"/>
<path d="M1099.34 2.08203H1086.16L1171.06 235.523L1171.82 237.453H1184.95L1100.04 4.01174L1099.34 2.08203Z" fill="#CB333B"/>
<path d="M1058.23 2.08203H1044.99L959.708 236.595L959.387 237.453H972.573L1057.86 2.99328L1058.23 2.08203Z" fill="#CB333B"/>
<path d="M1101.33 158.924L1073.83 71.8732L1044.45 158.924H1101.33ZM1061.77 146.542L1073.4 111.915L1084.12 146.542H1061.77Z" fill="#CB333B"/>
<path d="M1033.14 193.016L1018.35 236.595L1018.03 237.453H1031.54L1042.04 205.398H1103.2L1113.17 237.453H1126.2L1112.32 193.016H1033.14Z" fill="#CB333B"/>
<path d="M431.125 6.67171C419.642 11.3498 409.293 18.4296 400.772 27.4362C376.222 51.772 376.222 83.0762 376.222 116.203V123.975C376.222 156.995 376.222 188.299 400.557 212.474C408.744 221.037 418.576 227.858 429.463 232.528C452.046 242.214 480.745 242.486 503.556 233.325C515.051 228.708 525.45 221.733 534.083 212.849C558.472 187.924 558.472 156.834 558.472 123.6V115.988C558.472 82.9689 558.472 51.6648 534.19 27.4898C526.032 18.9035 516.214 12.0664 505.331 7.3944C483.006 -2.18941 453.602 -2.48546 431.125 6.67171ZM409.456 36.0663C416.537 28.7643 425.009 22.9536 434.372 18.9766C453.682 10.774 479.252 10.4686 498.712 18.2455C508.654 22.2187 517.641 28.2562 525.077 35.9591C545.822 56.8107 545.822 85.5955 545.822 116.364V123.868C545.822 154.368 545.822 183.153 525.024 204.273C517.57 211.94 508.576 217.939 498.634 221.875C479.346 229.511 455.149 229.496 435.88 221.813C425.887 217.829 416.86 211.757 409.402 204.005C388.658 183.153 388.658 154.315 388.658 123.6V116.096C388.604 85.7563 388.55 56.9715 409.456 36.0663Z" fill="#CB333B"/>
<path fill-rule="evenodd" clip-rule="evenodd" d="M440.384 115.233L440.384 115.278L440.384 122.829C440.384 139.306 440.553 149.096 442.069 157.08C442.819 161.03 444.185 164.253 446.288 166.859C448.39 169.465 451.251 171.484 455.037 172.994C458.231 174.267 462.753 174.917 467.311 174.919C471.869 174.921 476.394 174.276 479.593 173.01C483.408 171.499 486.225 169.511 488.277 166.93C490.332 164.346 491.647 161.135 492.409 157.138C493.926 149.172 494.095 139.452 494.095 123.097V115.593C494.095 99.0844 493.926 89.2997 492.411 81.3263C491.661 77.3817 490.308 74.1833 488.222 71.5991C486.136 69.0159 483.293 67.0167 479.517 65.5076C476.127 64.1529 471.572 63.5125 467.005 63.5753C462.439 63.6382 457.918 64.4035 454.595 65.815C450.941 67.3669 448.169 69.3589 446.126 71.9073C444.083 74.4559 442.746 77.5895 442.008 81.4589C440.51 89.3192 440.355 98.9445 440.384 115.233ZM427.627 122.829C427.627 138.979 427.751 150.062 429.536 159.46C431.835 171.569 438.813 180.259 450.312 184.843C455.556 186.934 461.85 187.673 467.305 187.676C472.762 187.679 479.05 186.945 484.289 184.871C495.87 180.286 502.617 171.722 504.94 159.525C506.727 150.143 506.852 139.129 506.852 123.097V115.593C506.852 99.4131 506.727 88.3334 504.944 78.9452C502.646 66.8516 495.721 58.2455 484.251 53.6616C478.805 51.4853 472.446 50.7423 466.83 50.8196C461.21 50.897 454.923 51.8154 449.607 54.0735C438.516 58.7848 431.737 67.2142 429.477 79.0699C427.706 88.3618 427.599 99.2958 427.627 115.256L427.627 115.28V122.829Z" fill="#CB333B"/>
</svg>
